<?xml version="1.0" encoding="UTF-8"?>
<svg xmlns="http://www.w3.org/2000/svg" xmlns:xlink="http://www.w3.org/1999/xlink" viewBox="0 0 2937.1 1795.12">
  <defs>
    <linearGradient id="linear-gradient" x1="1495.64" y1="0" x2="1495.64" y2="1795.12" gradientUnits="userSpaceOnUse">
      <stop offset=".43" stop-color="#a37c53"/>
      <stop offset=".51" stop-color="#ac8760"/>
      <stop offset=".65" stop-color="#c6a685"/>
      <stop offset=".67" stop-color="#caab8a"/>
      <stop offset="1" stop-color="#e5d2b7"/>
    </linearGradient>
  </defs>
  <g id="BAGGRUND">
    <rect x="54.17" width="2882.93" height="1795.12" style="fill: url(#linear-gradient);"/>
  </g>
  <g id="Skum">
    <path d="M54.17,213.14C339.84,95.78,600.22,78.58,994.39,102.93c669.33,41.35,1461.15,509.14,1461.15,667.3s-844.94-94.56-1461.15-94.56c-394.92,0-635.77,63.26-940.21,132.12" style="fill: #e5d2b7;"/>
    <path d="M2937.1,1582.33c-285.67,117.36-546.04,134.56-940.21,110.21-669.33-41.35-1461.15-509.14-1461.15-667.3s844.94,94.56,1461.15,94.56c394.92,0,635.77-63.26,940.21-132.12" style="fill: #e5d2b7;"/>
  </g>
  <g id="Text1">
    <g>
      <path d="M144.01,376.1c6.58-1.59,9.87-2.38,16.46-3.93,54.13-12.48,71.27,44.25,77.69,86.36,6.3,41.3,6.62,106.76-43.13,121.5-6.24,1.79-9.35,2.69-15.59,4.52-11.81-69.48-23.62-138.97-35.43-208.45ZM217.6,464.44c-3.52-22.74-12.94-92.53-51.93-82.7,10.33,62.42,20.66,124.85,30.99,187.27,35.28-10.8,24.71-80.27,20.94-104.57Z" style="fill: #472d16;"/>
      <path d="M287.96,449.63c-3.91-27.75-16.31-104.22,26.64-111.71,42.62-7.43,50.65,69.05,53.86,95.18,3.46,28.24,13.84,101.48-26.68,111.13-40.96,9.76-50.39-70.31-53.81-94.6ZM347.39,437.19c-1.63-12.82-7.64-92.8-31.38-88.58-24.25,4.32-9.02,81.74-7.01,96.46,1.65,12.08,9.03,93.47,31.37,88.44,23.36-5.26,8.97-81.04,7.02-96.33Z" style="fill: #472d16;"/>
      <path d="M411.8,324.08c7.12-1.05,10.68-1.56,17.81-2.57,19.23,47.94,38.17,96,56.79,144.18-4.83-49.95-9.66-99.9-14.49-149.84,5.47-.69,8.21-1.03,13.68-1.7,6.1,65.13,12.2,130.26,18.29,195.39-6.79,1.16-10.18,1.75-16.97,2.95-18.53-48.17-37.36-96.21-56.5-144.14,5.41,50.52,10.82,101.04,16.22,151.57-5.21,1-7.81,1.5-13.01,2.53-7.28-66.12-14.56-132.24-21.84-198.37Z" style="fill: #472d16;"/>
      <path d="M546.05,307.43c7.13-.72,10.69-1.07,17.82-1.74,17.63,47.18,34.98,94.46,52.02,141.86-3.23-48.52-6.47-97.04-9.7-145.56,5.47-.44,8.21-.65,13.68-1.06,4.02,63.25,8.04,126.51,12.06,189.76-6.8.84-10.21,1.28-17.01,2.16-16.95-47.37-34.2-94.64-51.73-141.8,3.78,49.12,7.57,98.23,11.35,147.35-5.22.76-7.83,1.14-13.05,1.92-5.15-64.3-10.3-128.59-15.45-192.89Z" style="fill: #472d16;"/>
      <path d="M701.96,295.88c6.62-.31,9.92-.46,16.54-.73,12.82,60.91,25.31,121.89,37.46,182.93-7.54.6-11.31.91-18.86,1.56-3.94-19.9-7.91-39.8-11.91-59.7-10.12.74-15.19,1.13-25.31,1.96-2.13,20.6-4.22,41.2-6.27,61.81-5.23.53-7.84.8-13.07,1.36,6.66-63.12,13.79-126.19,21.4-189.2ZM723.26,410.51c-4.84-24.16-9.73-48.31-14.67-72.46-2.7,24.71-5.34,49.43-7.91,74.16,9.03-.71,13.55-1.05,22.58-1.7Z" style="fill: #472d16;"/>
      <path d="M799.72,314.03c-.94.29-2.52.58-4.1.62-8.22.17-13.74-5.06-13.91-11.5-.17-6.45,5.72-11.94,13.67-12.06,9.54-.14,15.38,5.75,15.25,15.28-.18,14.18-8.95,27.38-16.14,39.65-4.27.13-6.4.19-10.67.34,6.23-10.74,11.37-20.78,15.9-32.32Z" style="fill: #472d16;"/>
      <path d="M854.89,420.82c7.88-.23,11.83-.33,19.71-.51.21,11.97,2.6,43.16,18.84,42.71,10.01-.28,14.6-14.13,14.68-23.24.18-21.67-14.11-41.67-25.97-58.89-11.47-16.5-23.51-35.4-23.84-55.8-.3-17.78,14.95-34.46,33.01-33.82,26.7.94,36.2,29.48,36.45,52.62-8.02-.14-12.03-.19-20.06-.27-.02-11.91-.68-41.87-17.01-42.95-7.8-.52-14.03,8.09-13.83,20.26.33,19.47,11.04,35.31,21.75,51.02,12.68,18.25,27.58,38.14,27.31,61.42-.2,17.27-13.5,38.87-32.78,39.08-27.65.3-37.68-28.18-38.26-51.6Z" style="fill: #472d16;"/>
      <path d="M1053.71,300.53c7.96.59,11.94.9,19.89,1.54,22.94,2.06,53.58,17.6,52.11,44.46-1.4,25.5-26.73,39.06-49.98,39.74.1-2.28.15-3.42.24-5.7,17.75-2.51,28.34-18.99,29.12-35.8.83-17.92-13.91-33.5-31.84-34.27-2.19,53.44-4.39,106.87-6.58,160.31-7.65-.25-11.48-.36-19.13-.56,2.05-56.58,4.11-113.15,6.16-169.73Z" style="fill: #472d16;"/>
      <path d="M1169.09,393.84c1.64-25,7.39-83.68,46.34-78.45,38.17,5.13,36.12,60.34,33.83,87-2.12,24.82-8.84,80.92-46.28,77.88-37.89-3.08-35.54-61.29-33.89-86.43ZM1228.31,399.94c1.21-15.07,9.08-73.16-13.53-75.99-22.41-2.81-23.71,57.9-24.7,71.91-1.04,14.75-8.34,73.84,13.54,75.86,21.68,2.01,23.58-57.93,24.69-71.78Z" style="fill: #472d16;"/>
      <path d="M1310.87,331.16c7.13,1.17,10.69,1.77,17.81,2.99,22.09,3.9,53.32,18.95,49.68,46.13-2.19,16.32-15.73,28.47-31.59,31.94,8.27,28.41,16.44,56.84,24.49,85.31-7.95-1.14-11.92-1.7-19.88-2.78-7.8-29.22-15.72-58.41-23.75-87.56,16.44-1.63,28.55-14.3,30.31-30.49,1.86-17.08-11.37-32.27-28.21-34.46-5.15,49.24-10.29,98.48-15.44,147.72-7.6-.93-11.4-1.38-19.01-2.26,5.19-52.18,10.38-104.36,15.57-156.54Z" style="fill: #472d16;"/>
      <path d="M1449.7,365.41c-9.29-1.98-18.59-3.92-27.9-5.8.4-3.1.6-4.65,1-7.75,25.18,5.23,50.3,10.73,75.36,16.51-.45,3.01-.67,4.52-1.12,7.53-9.26-2.14-18.54-4.23-27.82-6.27-6.6,46.75-13.2,93.5-19.8,140.26-7.56-1.31-11.34-1.94-18.91-3.2,6.4-47.09,12.8-94.19,19.2-141.28Z" style="fill: #472d16;"/>
      <path d="M1522.86,449.18c3.99-25.15,15.44-73.02,51.76-63.42,34.83,9.21,32.04,54.63,27.07,82.07-4.45,24.58-17.49,70.28-51.67,62.85-35.03-7.61-31.25-55.75-27.16-81.5ZM1581.11,462.73c2.44-13.95,14.08-64.18-7.76-69.45-21.93-5.29-27.68,47.44-29.83,60.56-2.42,14.71-13.57,64.23,7.79,69.32,20.83,4.97,27.72-48.48,29.81-60.43Z" style="fill: #472d16;"/>
      <path d="M1654.9,481.33c-3.38-.92-5.06-1.38-8.44-2.28.55-2.82.82-4.23,1.37-7.05,3.38.92,5.07,1.38,8.45,2.31,3.99-20.28,7.98-40.56,11.97-60.85,16.82,5.04,33.6,10.19,50.35,15.47-.58,2.75-.87,4.13-1.46,6.88-10.34-3.23-20.69-6.42-31.06-9.58-3.6,17.79-7.2,35.58-10.8,53.37,9.65,2.72,19.29,5.49,28.91,8.32-.58,2.75-.87,4.13-1.45,6.88-9.61-2.8-19.23-5.54-28.87-8.23-4.59,22.7-9.19,45.41-13.78,68.11-7.48-1.89-11.22-2.82-18.7-4.66l13.51-68.68Z" style="fill: #472d16;"/>
      <path d="M1747.94,508.75c6.08-25.14,20.28-65.41,54.43-53.32,32.5,11.51,29.95,51.24,23.16,78.46-6.34,25.42-21.53,62.13-54.31,52.75-33.23-9.5-29.54-52.02-23.28-77.89ZM1805.29,527.09c3.54-14.56,16.73-57.15-4.53-64.86-21.18-7.68-29.78,41.21-32.48,52.87-3.13,13.53-16.41,58.41,4.56,64.73,20.78,6.26,29.5-40.6,32.45-52.74Z" style="fill: #472d16;"/>
      <path d="M1893.9,490.62c7.56,2.93,11.33,4.41,18.87,7.39-10.53,38.49-21.06,76.98-31.6,115.47,10.43,3.61,20.85,7.26,31.25,10.95-.7,2.46-1.05,3.7-1.75,6.16-16.5-5.8-33.04-11.49-49.62-17.05,10.95-40.97,21.9-81.94,32.85-122.91Z" style="fill: #472d16;"/>
      <path d="M1990.87,530.17c7.48,3.21,11.22,4.82,18.69,8.08-11.85,38.53-23.71,77.06-35.56,115.6-7.3-2.78-10.95-4.16-18.27-6.88,11.71-38.93,23.43-77.86,35.14-116.79Z" style="fill: #472d16;"/>
      <path d="M2042.92,617.52c8.1-24.98,27-54.05,56.95-39.39,29.07,14.23,28.04,46.43,18.53,73.18-8.83,24.84-27.34,50.92-56.79,38.83-29.82-12.24-26.92-47.22-18.69-72.62ZM2098.72,642.25c4.87-13.97,18.9-48.9-.84-58.31-20.1-9.59-31.08,30.01-35.16,42.2-4.67,13.95-18.75,49.82.87,58.19,19.28,8.22,30.94-30.07,35.13-42.07Z" style="fill: #472d16;"/>
    </g>
  </g>
  <g id="Text2">
    <rect x="568.72" y="1147.47" width="3.57" height="1.79" style="fill: none;"/>
    <g>
      <path d="M1503.55,1430.39c13.69-15.2,27.25-30.51,40.67-45.95,23.63-28.04,47.62-59.46,55.15-95.87,2.55-12.33,10.52-47.19-5.84-51.7-19.03-5.24-28.47,36.94-32.43,50.66-9.08-2.2-13.61-3.33-22.66-5.63,6.92-25.11,25.66-65.27,58.31-57.24,30.35,7.46,32.12,43.88,26.39,69.13-8.68,38.26-40.26,70.97-65.38,99.62-11.96,13.55-24.03,27.01-36.2,40.38,22.7,5.5,45.44,10.71,68.27,15.65-1.67,7.82-2.51,11.73-4.18,19.54-29.03-6.29-57.93-13.03-86.74-20.24l4.64-18.36Z" style="fill: #472d16;"/>
      <path d="M1777.44,1381.76c4.09-29.63,14.23-120.45,62.1-114.72,47.88,5.73,36.8,96.17,33.95,125.95-3.07,32.05-10.9,121.44-62.2,115.73-51.28-5.71-38.21-95.36-33.84-126.96ZM1848.33,1390.44c1.79-16.76,16.73-107.71-10.25-110.86-27.21-3.18-33.37,88.29-35.55,105.51-2.28,17.92-19.5,107.63,10.23,111.09,29.53,3.44,33.71-88.23,35.58-105.74Z" style="fill: #472d16;"/>
      <path d="M2043.99,1503.25c9.88-17.89,19.61-35.86,29.18-53.93,16.66-32.65,32.91-68.66,32.06-105.83-.29-12.56-.37-48.35-17.27-49.06-19.65-.83-19.36,42.44-20.13,56.66-9.3-.1-13.96-.18-23.26-.38,1.08-25.93,10.2-69.37,43.77-68.9,31.21.44,41.06,35.6,41.17,61.42.15,39.22-23.19,78.19-41.17,111.78-8.58,15.9-17.27,31.72-26.09,47.49,23.28.24,46.55.2,69.83-.11.13,7.99.19,11.99.32,19.98-29.6.4-59.19.34-88.79-.19.15-7.57.23-11.36.39-18.93Z" style="fill: #472d16;"/>
      <path d="M2302.38,1446.08c9.72-.87,14.58-1.32,24.29-2.29,2.16,15.67,4.93,57.23,28.97,54.43,22.64-2.64,15.2-47.87,13.6-61.53-1.67-14.22-4.36-55.29-27.57-52.63-12.12,1.39-17.05,8.84-19.03,15.38-5.36.53-8.04.79-13.41,1.3-1.22-42.26-2.58-84.51-4.07-126.76,19.96-1.93,39.89-4.16,59.79-6.65.99,7.93,1.49,11.9,2.48,19.83-16.3,2.05-32.63,3.89-48.97,5.58,1.35,29.59,2.65,59.17,3.88,88.76,5.39-5.83,11.42-9.34,21.28-10.35,34.25-3.49,47.03,35.99,50.98,62.4,4.1,27.37-2.53,72.87-37.19,77.17-35.32,4.38-51.67-35.71-55.03-64.65Z" style="fill: #472d16;"/>
    </g>
  </g>
</svg>