<?xml version="1.0" encoding="UTF-8"?>
<svg xmlns="http://www.w3.org/2000/svg" xmlns:xlink="http://www.w3.org/1999/xlink" viewBox="0 0 1821.01 1024">
  <defs>
    <style>
      .cls-1 {
        fill: #472d16;
      }

      .cls-2 {
        fill: none;
      }

      .cls-3 {
        fill: #e5d2b7;
      }

      .cls-4 {
        fill: url(#linear-gradient);
      }
    </style>
    <linearGradient id="linear-gradient" x1="929.56" y1="0" x2="929.56" y2="1024" gradientUnits="userSpaceOnUse">
      <stop offset=".43" stop-color="#a37c53"/>
      <stop offset=".51" stop-color="#ac8760"/>
      <stop offset=".65" stop-color="#c6a685"/>
      <stop offset=".67" stop-color="#caab8a"/>
      <stop offset="1" stop-color="#e5d2b7"/>
    </linearGradient>
  </defs>
  <g id="BAGGRUND">
    <rect class="cls-4" x="209.56" width="1440" height="1024"/>
  </g>
  <g id="Skum">
    <path class="cls-3" d="M209.56,121.58c162.95-66.95,311.48-76.76,536.33-62.87,381.81,23.59,833.49,290.43,833.49,380.65s-481.98-53.94-833.49-53.94c-225.28,0-362.66,36.09-536.33,75.36"/>
    <path class="cls-3" d="M1649.56,897.18c-162.95,66.95-311.48,76.76-536.33,62.87-381.81-23.59-833.49-290.43-833.49-380.65s481.98,53.94,833.49,53.94c225.28,0,362.66-36.09,536.33-75.36"/>
  </g>
  <g id="Text1">
    <g>
      <path class="cls-1" d="M260.81,214.54c3.75-.91,5.63-1.36,9.39-2.24,30.81-6.99,40.69,25.38,44.31,49.26,3.57,23.54,3.58,60.54-24.6,69.31-3.56,1.02-5.34,1.54-8.89,2.58-6.74-39.64-13.47-79.27-20.21-118.91ZM302.78,264.93c-2.11-13.77-7.03-52-29.62-47.17,5.89,35.61,11.79,71.22,17.68,106.83,19.83-8.06,14.27-44.5,11.95-59.65Z"/>
      <path class="cls-1" d="M342.92,256.48c-2.24-15.91-8.8-59.36,15.2-63.72,23.82-4.33,28.9,39.48,30.72,54.29,1.99,16.22,7.58,57.84-15.22,63.39-22.91,5.58-28.8-40.46-30.7-53.96ZM376.82,249.39c-1.5-11.67-6.44-51.91-17.9-50.53-11.55,1.39-5.58,43.48-4,55.03,1.55,11.31,7.51,52.3,17.89,50.45,10.54-1.88,5.52-43.16,4.01-54.95Z"/>
      <path class="cls-1" d="M413.56,184.87c4.06-.6,6.09-.89,10.16-1.47,10.96,27.35,21.76,54.77,32.4,82.25-2.75-28.49-5.51-56.98-8.26-85.48,3.12-.39,4.68-.59,7.8-.97,3.48,37.15,6.96,74.31,10.44,111.46-3.87.66-5.81,1-9.68,1.68-10.58-27.47-21.32-54.88-32.23-82.22,3.08,28.82,6.17,57.64,9.25,86.46-2.97.57-4.45.86-7.42,1.44-4.15-37.72-8.31-75.44-12.46-113.16Z"/>
      <path class="cls-1" d="M490.14,175.37c4.07-.41,6.1-.61,10.17-.99,10.05,26.92,19.94,53.89,29.68,80.92-1.84-27.68-3.69-55.36-5.53-83.03,3.12-.25,4.68-.37,7.81-.61,2.29,36.08,4.59,72.16,6.88,108.25-3.88.48-5.82.73-9.7,1.23-9.68-27.02-19.52-53.98-29.51-80.88,2.16,28.02,4.32,56.04,6.48,84.05-2.98.43-4.47.65-7.44,1.1-2.94-36.68-5.88-73.35-8.81-110.03Z"/>
      <path class="cls-1" d="M579.08,168.78c3.77-.18,5.66-.26,9.43-.42,7.3,34.75,14.43,69.53,21.37,104.35-4.3.34-6.45.52-10.76.89-2.25-11.35-4.51-22.7-6.79-34.05-5.77.42-8.66.65-14.44,1.12-1.22,11.75-2.41,23.5-3.57,35.26-2.98.3-4.47.46-7.46.78,3.81-36.01,7.88-71.98,12.21-107.93ZM591.23,234.17c-2.77-13.78-5.56-27.56-8.37-41.33-1.54,14.1-3.04,28.2-4.51,42.3,5.15-.41,7.73-.6,12.88-.97Z"/>
      <path class="cls-1" d="M634.85,179.13c-.54.16-1.44.33-2.34.35-4.69.1-7.84-2.88-7.94-6.56-.1-3.68,3.26-6.81,7.8-6.88,5.44-.08,8.59,3.09,8.7,8.72.13,6.54-4.73,15.3-9.21,22.62-2.43.07-3.65.11-6.09.19,4.12-6.73,7.04-12.45,9.07-18.44Z"/>
      <path class="cls-1" d="M666.32,240.05c4.5-.13,6.75-.19,11.24-.29-.1,9.04,2.17,23.2,10.75,24.36,4.19.57,8.31-6.48,8.37-13.26.1-12.21-7.76-24.2-14.82-33.59-6.34-9.57-13.61-19.79-13.6-31.83,0-10.52,8.2-19.69,18.83-19.29,14.71.55,21.1,16.88,20.79,30.01-4.58-.08-6.86-.11-11.44-.16.22-9.01-1.48-22.9-9.7-24.5-3.8-.74-7.86,4.59-7.89,11.56-.04,10.95,6.7,20.38,12.41,29.1,7.48,10.38,15.62,22.02,15.58,35.03-.03,10.46-7.9,21.85-18.7,22.29-15.12.61-21.48-15.95-21.82-29.44Z"/>
      <path class="cls-1" d="M779.73,171.43c4.54.34,6.81.51,11.35.88,12.76,1.29,30.4,10.24,29.72,25.36-.64,14.31-15.71,22.23-28.51,22.67.06-1.3.08-1.95.14-3.25,10.1-1.72,16.25-10.6,16.61-20.42.39-10.54-7.85-18.75-18.16-19.55-1.25,30.48-2.5,60.96-3.75,91.45-4.36-.14-6.55-.21-10.91-.32,1.17-32.27,2.34-64.55,3.52-96.82Z"/>
      <path class="cls-1" d="M845.55,224.66c.94-14.3,3.83-47.84,26.43-44.75,22.21,3.04,20.61,34.28,19.3,49.63-1.23,14.34-4.73,46.2-26.4,44.43-21.93-1.8-20.28-34.79-19.33-49.3ZM879.33,228.14c.72-8.93,4.3-41.81-7.72-43.35-11.89-1.52-13.53,33.01-14.09,41.02-.6,8.46-3.84,42.29,7.73,43.28,11.49.98,13.42-32.68,14.08-40.95Z"/>
      <path class="cls-1" d="M926.42,188.91c4.07.67,6.1,1.01,10.16,1.71,12.22,2.2,30.57,10.88,28.34,26.32-1.44,9.94-8.49,15.77-18.02,18.22,4.72,16.2,9.39,32.42,13.97,48.66-4.53-.65-6.8-.97-11.34-1.59-4.46-16.67-8.97-33.31-13.55-49.95,9.41-1.36,16.04-6.6,17.29-17.39,1.18-10.15-6.43-18.12-16.09-19.66-2.94,28.09-5.87,56.17-8.81,84.26-4.34-.53-6.51-.79-10.84-1.29,2.96-29.77,5.92-59.53,8.88-89.3Z"/>
      <path class="cls-1" d="M1005.61,208.44c-6.36-1.36-9.54-2.02-15.92-3.31.23-1.77.34-2.65.57-4.42,14.36,3,28.68,6.14,42.99,9.42l-.64,4.3c-6.34-1.46-9.52-2.18-15.87-3.58-3.76,26.67-7.53,53.34-11.29,80.01-4.31-.74-6.47-1.11-10.79-1.82,3.65-26.86,7.3-53.73,10.95-80.59Z"/>
      <path class="cls-1" d="M1047.35,256.23c2.25-14.25,9.24-41.69,29.53-36.18,19.7,5.35,18.26,31.23,15.44,46.81-2.56,14.16-9.81,40.06-29.47,35.85-19.88-4.25-17.84-31.62-15.49-46.49ZM1080.58,263.96c1.66-8.68,6.73-37.34-4.43-39.62-11.3-2.31-15.54,25.58-17.02,34.55-1.61,9.81-6.06,37.18,4.44,39.54,10.29,2.31,15.39-26.02,17.01-34.47Z"/>
      <path class="cls-1" d="M1122.67,274.57c-1.93-.52-2.89-.78-4.82-1.3.31-1.61.47-2.41.78-4.02,1.93.52,2.89.79,4.82,1.32,2.28-11.57,4.55-23.14,6.83-34.71,9.6,2.85,19.18,5.79,28.72,8.82-.33,1.57-.5,2.35-.83,3.92-7.08-2.23-10.62-3.32-17.72-5.46-2.05,10.15-4.11,20.3-6.16,30.45,6.6,1.86,9.9,2.81,16.49,4.75-.33,1.57-.5,2.36-.83,3.93-6.58-1.91-9.87-2.85-16.47-4.7-2.62,12.95-5.24,25.9-7.86,38.85-4.26-1.08-6.4-1.61-10.67-2.66l7.71-39.18Z"/>
      <path class="cls-1" d="M1175.74,290.21c3.11-13.94,12.13-37.21,31.05-30.41,18.24,6.55,16.99,29.61,13.21,44.75-3.43,13.77-12.63,35.57-30.98,30.09-18.55-5.53-16.51-29.95-13.28-44.43ZM1208.45,300.67c2.22-9.11,8-33.43-2.58-37-10.44-3.52-16.62,21.91-18.53,30.16-2.12,9.19-7.65,33.74,2.6,36.92,10.13,3.15,16.6-22.25,18.51-30.09Z"/>
      <path class="cls-1" d="M1259,279.87c4.31,1.67,6.46,2.51,10.76,4.21-6.01,21.96-12.02,43.91-18.02,65.87,7.14,2.46,10.7,3.7,17.83,6.25-.4,1.41-.6,2.11-1,3.52-9.4-3.34-18.84-6.58-28.31-9.73,6.25-23.37,12.49-46.74,18.74-70.11Z"/>
      <path class="cls-1" d="M1314.32,302.43c4.27,1.83,6.4,2.75,10.66,4.61-6.76,21.98-13.52,43.96-20.29,65.94-4.16-1.59-6.25-2.37-10.42-3.93,6.68-22.21,13.36-44.42,20.05-66.62Z"/>
      <path class="cls-1" d="M1344.01,352.25c4.53-13.98,15.59-30.67,32.48-22.47,16.24,7.88,15.81,27,10.57,41.74-4.78,13.44-16.08,29.11-32.4,22.15-16.56-7.07-15.29-27.12-10.66-41.42ZM1375.83,366.36c2.83-8.47,9.71-28.55-.48-33.26-10.48-4.85-17.13,16.15-20.06,24.07-3.17,8.59-9.5,28.9.5,33.19,9.68,4.15,17.65-16.86,20.04-24Z"/>
    </g>
  </g>
  <g id="Text2">
    <rect class="cls-2" y="761.91" width="3.57" height="1.79"/>
    <g>
      <path class="cls-1" d="M852.59,815.94c7.83-8.65,15.56-17.39,23.2-26.21,13.51-16.35,27.25-34.04,31.46-54.69,1.52-7.45,5.35-27.52-3.33-29.49-9.9-2.25-16.02,19.63-18.5,28.9-5.18-1.26-7.76-1.9-12.93-3.21,3.95-14.11,14.66-37.31,33.26-32.65,17.18,4.3,18.39,24.95,15.05,39.43-5.07,22.01-23.01,40.41-37.3,56.83-6.8,7.75-13.68,15.43-20.65,23.03,12.94,3.16,25.92,6.14,38.94,8.93-.95,4.46-1.43,6.69-2.39,11.15-16.57-3.52-33.06-7.41-49.48-11.54,1.06-4.19,1.59-6.28,2.65-10.47Z"/>
      <path class="cls-1" d="M1008.82,788.2c2.37-17.04,8.44-68.61,35.42-65.44,26.91,3.16,20.94,55.2,19.36,71.84-1.75,18.39-6.01,69.42-35.48,66.02-29.45-3.41-21.86-54.05-19.3-72.42ZM1049.26,793.16c1.2-11.2,8.18-61.41-5.85-63.24-13.86-1.8-18.93,49.54-20.28,60.19-1.38,10.89-9.56,61.75,5.84,63.37,15.56,1.64,19.08-48.92,20.29-60.32Z"/>
      <path class="cls-1" d="M1160.87,857.51c5.62-10.22,11.16-20.47,16.64-30.76,9.46-18.98,18.83-39.31,18.29-60.37-.2-7.59-.99-28.02-9.85-27.99-10.11.04-11.16,22.75-11.48,32.32-5.31-.06-7.96-.1-13.27-.22.67-14.59,5.83-39.65,24.97-39.3,17.68.33,23.47,20.21,23.48,35.04.01,22.57-13.29,44.54-23.49,63.76-4.86,9.08-9.83,18.11-14.88,27.09,13.28.17,26.56.15,39.84-.07.07,4.56.11,6.84.18,11.4-16.88.29-33.77.22-50.65-.11.09-4.32.13-6.48.22-10.8Z"/>
      <path class="cls-1" d="M1308.27,824.89c5.54-.49,8.32-.76,13.86-1.31,1.16,10.27,5.22,32.77,16.53,31.05,10.45-1.59,8.83-25.81,7.76-35.1-1.04-9.07-3.63-30.53-15.73-30.02-6.54.28-9.73,5.04-10.86,8.77-3.06.3-4.59.45-7.65.74-.7-24.1-1.48-48.21-2.32-72.31,11.39-1.16,22.74-2.43,34.1-3.79.57,4.52.85,6.79,1.42,11.31-9.29,1.17-18.61,2.24-27.93,3.18.78,16.88,1.51,33.75,2.21,50.63,3.07-3.32,6.48-5.27,12.14-5.9,19.16-2.15,27.2,20.82,29.08,35.6,1.85,14.49-1.79,42.2-21.22,44.02-20.07,1.88-29.45-20.54-31.39-36.88Z"/>
    </g>
  </g>
</svg>